<?xml version="1.0" encoding="UTF-8"?>
<svg width="49px" height="31px" viewBox="0 0 49 31" version="1.1" xmlns="http://www.w3.org/2000/svg" xmlns:xlink="http://www.w3.org/1999/xlink">
    <!-- Generator: Sketch 52.6 (67491) - http://www.bohemiancoding.com/sketch -->
    <title>mastercard</title>
    <desc>Created with Sketch.</desc>
    <g id="Symbols" stroke="none" stroke-width="1" fill="none" fill-rule="evenodd">
        <g id="D___FOOTER" transform="translate(-664.000000, -463.000000)" fill-rule="nonzero">
            <g id="___FOOTER">
                <g id="payement-methods" transform="translate(544.000000, 455.000000)">
                    <g id="mastercard" transform="translate(120.800000, 8.400000)">
                        <rect id="Rectangle-1" fill="#F4F4F4" x="0" y="0" width="48" height="30" rx="2.4"></rect>
                        <g id="mark" transform="translate(9.000000, 3.000000)">
                            <g id="text" transform="translate(1.508561, 19.701601)" fill="#000000">
                                <path d="M28.0629337,3.11596139 C27.9901562,3.11774151 27.9302043,3.14189369 27.8830777,3.18841801 C27.835951,3.23494393 27.8115616,3.29316659 27.8099096,3.36308617 C27.8115616,3.43247698 27.835951,3.49054822 27.8830778,3.53730003 C27.9302044,3.58405275 27.9901562,3.60835636 28.0629337,3.61021095 C28.1340458,3.60835636 28.1932411,3.58405274 28.2405196,3.53730001 C28.2877971,3.49054818 28.3123378,3.43247696 28.3141417,3.36308617 C28.3123756,3.29316659 28.2879106,3.23494392 28.2407465,3.18841799 C28.1935816,3.14189366 28.1343107,3.11774149 28.0629337,3.11596139 Z M28.0629337,3.55569813 C28.0074835,3.55433575 27.9617566,3.53555912 27.9257528,3.4993682 C27.8897487,3.46317824 27.8711099,3.41775095 27.8698364,3.36308617 C27.8711099,3.30818282 27.8897488,3.26278074 27.9257528,3.2268798 C27.9617566,3.19098037 28.0074835,3.17238043 28.0629337,3.17107991 C28.117223,3.17238046 28.1622437,3.1909804 28.1979958,3.22687981 C28.2337471,3.26278074 28.252285,3.30818282 28.2536096,3.36308617 C28.252285,3.41775097 28.2337471,3.46317827 28.1979958,3.4993682 C28.1622437,3.5355591 28.117223,3.55433572 28.0629337,3.55569813 Z M28.0774613,3.24739785 L27.9715302,3.24739785 L27.9715302,3.47695739 L28.0205612,3.47695739 L28.0205612,3.39094828 L28.042958,3.39094828 L28.1125699,3.47695739 L28.171286,3.47695739 L28.0962263,3.39034258 C28.1196695,3.38740301 28.137703,3.37980654 28.1503268,3.36755317 C28.1629499,3.35530102 28.1693309,3.33967909 28.1694701,3.32068731 C28.1693057,3.29802478 28.1613104,3.28020717 28.1454842,3.26723444 C28.1296573,3.25426314 28.106983,3.24765095 28.0774613,3.24739785 Z M28.0776164,3.29040245 C28.0909468,3.2904242 28.1014018,3.2945909 28.1089814,3.30290238 C28.1165603,3.31121617 28.1204202,3.32355117 28.1205612,3.33990736 C28.1204198,3.35674005 28.1165603,3.36936379 28.1089814,3.37777858 C28.1014018,3.38619553 28.0909468,3.39040336 28.0776164,3.39040236 L28.0205612,3.39040236 L28.0205612,3.29040236 L28.0776164,3.29040245 Z" id="path3078"></path>
                                <path d="M0.560599034,3.45256817 L0.035290555,3.45256817 L0.035290555,0.99960027 L0.550298854,0.99960027 L0.550298854,1.29849112 C0.550298854,1.29849112 1.00264413,0.93319491 1.2713105,0.937761048 C1.79369579,0.946639902 2.10562374,1.39125059 2.10562374,1.39125059 C2.10562374,1.39125059 2.35865936,0.937761048 2.92963751,0.937761048 C3.77398793,0.937761048 3.89785289,1.71075515 3.89785289,1.71075515 L3.89785289,3.44226164 L3.39314465,3.44226164 L3.39314465,1.91688652 C3.39314465,1.91688652 3.39495553,1.45309045 2.84723594,1.45309045 C2.28083848,1.45309045 2.22922577,1.91688652 2.22922577,1.91688652 L2.22922577,3.44226164 L1.70391729,3.44226164 L1.70391729,1.90657999 C1.70391729,1.90657999 1.65345298,1.4221702 1.178609,1.4221702 C0.561900678,1.4221702 0.550298854,1.91688652 0.550298854,1.91688652 L0.560599034,3.45256817 Z" id="path3006"></path>
                                <path d="M16.5358139,0.93742638 C16.2671473,0.932860884 15.8148445,1.2981358 15.8148445,1.2981358 L15.8148445,0.999895608 L15.2992909,0.999895608 L15.2992909,3.45231669 L15.8249139,3.45231669 L15.8148445,1.9167827 C15.8148445,1.9167827 15.826467,1.42307426 16.4431754,1.42307426 C16.5577094,1.42307426 16.6466618,1.45083414 16.7170632,1.49360404 L16.7170632,1.49159213 L16.8882431,1.01400479 C16.7849455,0.970501056 16.6674734,0.939663984 16.5358139,0.93742638 Z" id="path3008"></path>
                                <path d="M23.9356644,0.93742638 C23.6669978,0.932860884 23.2146949,1.2981358 23.2146949,1.2981358 L23.2146949,0.999895608 L22.6991414,0.999895608 L22.6991414,3.45231669 L23.2247644,3.45231669 L23.2146949,1.9167827 C23.2146949,1.9167827 23.2263175,1.42307426 23.8430258,1.42307426 C23.95756,1.42307426 24.0465122,1.45083414 24.1169137,1.49360404 L24.1169137,1.49159213 L24.2880935,1.01400479 C24.184796,0.970504278 24.0673238,0.939667206 23.9356644,0.937429602 L23.9356644,0.93742638 Z" id="path3013"></path>
                                <path d="M5.59641177,0.927350694 C4.81025188,0.927350694 4.39421176,1.63438115 4.39211087,2.22509858 C4.389952,2.83057648 4.86573575,3.52889188 5.61856447,3.52889188 C6.05776068,3.52889188 6.41856246,3.2044549 6.41856246,3.2044549 L6.4176087,3.45433183 L6.93467988,3.45433183 L6.93467988,0.998929632 L6.41578752,0.998929632 L6.41578752,1.30821149 C6.41578752,1.30821149 6.07695924,0.927350694 5.59641435,0.927350694 L5.59641177,0.927350694 Z M5.69710583,1.42710454 C6.11948598,1.42710454 6.46238064,1.79473765 6.46238064,2.24726508 C6.46238064,2.69979251 6.11948598,3.06541049 5.69710583,3.06541049 C5.27472568,3.06541049 4.93384489,2.69979251 4.93384489,2.24726508 C4.93384489,1.79473765 5.27472568,1.42710454 5.69710583,1.42710454 Z" id="path3015"></path>
                                <path d="M20.6758547,0.927350694 C19.8896948,0.927350694 19.4736547,1.63438115 19.4715538,2.22509858 C19.4693949,2.83057648 19.9451786,3.52889188 20.6980073,3.52889188 C21.1372036,3.52889188 21.4980053,3.2044549 21.4980053,3.2044549 L21.4970516,3.45433183 L22.0141228,3.45433183 L22.0141228,0.998929632 L21.4952304,0.998929632 L21.4952304,1.30821149 C21.4952304,1.30821149 21.1564021,0.927350694 20.6758572,0.927350694 L20.6758547,0.927350694 Z M20.7765487,1.42710454 C21.1989289,1.42710454 21.5418235,1.79473765 21.5418235,2.24726508 C21.5418235,2.69979251 21.1989289,3.06541049 20.7765487,3.06541049 C20.3541686,3.06541049 20.0132878,2.69979251 20.0132878,2.24726508 C20.0132878,1.79473765 20.3541686,1.42710454 20.7765487,1.42710454 Z" id="path3020"></path>
                                <path d="M25.6405349,0.927350694 C24.854375,0.927350694 24.4383349,1.63438115 24.436234,2.22509858 C24.4340752,2.83057648 24.9098589,3.52889188 25.6626876,3.52889188 C26.1018838,3.52889188 26.4626856,3.2044549 26.4626856,3.2044549 L26.4617318,3.45433183 L26.9788031,3.45433183 L26.9788031,0.0296444772 L26.4599107,0.0296444772 L26.4599107,1.30821149 C26.4599107,1.30821149 26.1210824,0.927350694 25.6405375,0.927350694 L25.6405349,0.927350694 Z M25.741229,1.42710454 C26.1636091,1.42710454 26.5065038,1.79473765 26.5065038,2.24726508 C26.5065038,2.69979251 26.1636091,3.06541049 25.741229,3.06541049 C25.3188488,3.06541049 24.977968,2.69979251 24.977968,2.24726508 C24.977968,1.79473765 25.3188488,1.42710454 25.741229,1.42710454 Z" id="path3022"></path>
                                <path d="M8.51232732,3.53502047 C7.9767348,3.53502047 7.48231056,3.20521001 7.48231056,3.20521001 L7.70891442,2.85478585 C7.70891442,2.85478585 8.17673868,3.0712244 8.51232732,3.0712244 C8.7303678,3.0712244 9.09503622,3.000772 9.09943644,2.78264009 C9.10408932,2.55209687 8.4865767,2.4837486 8.4865767,2.4837486 C8.4865767,2.4837486 7.56471216,2.47116512 7.56471216,1.71075515 C7.56471216,1.23252748 8.02511628,0.927454512 8.61532908,0.927454512 C8.95636002,0.927454512 9.5938446,1.22634536 9.5938446,1.22634536 L9.33634044,1.62830221 C9.33634044,1.62830221 8.84413308,1.43153526 8.58442812,1.4221702 C8.36512836,1.41426248 8.10032076,1.51932879 8.10032076,1.71075515 C8.10032076,2.23084156 9.63504504,1.67023188 9.63504504,2.72080022 C9.63504504,3.41002913 9.01000146,3.53502047 8.51232732,3.53502047 Z" id="path3024"></path>
                                <path d="M10.4881289,0.288552434 L10.4881289,1.00191074 L10.030978,1.00191074 L10.030978,1.51778568 L10.4881289,1.51778568 L10.4881289,2.7510492 C10.4881289,2.7510492 10.4476696,3.5853157 11.3440285,3.5853157 C11.5918518,3.5853157 12.0770812,3.40193828 12.0770812,3.40193828 L11.8696514,2.86591198 C11.8696514,2.86591198 11.6766881,3.03061472 11.4588197,3.02510776 C11.0445717,3.0146413 11.0560435,2.74903406 11.0560435,2.74903406 L11.0560435,1.51778568 L11.909929,1.51778568 L11.909929,1.00191074 L11.0560435,1.00191074 L11.0560435,0.288552434 L10.4881289,0.288552434 Z" id="path3026"></path>
                                <path d="M13.5995753,0.95757774 C12.7566052,0.95757774 12.335425,1.65233876 12.3388857,2.25532562 C12.342443,2.87543051 12.7224182,3.57322487 13.6499223,3.57322487 C14.0469043,3.57322487 14.604502,3.22460627 14.604502,3.22460627 L14.3648501,2.80747302 C14.3648501,2.80747302 13.9843529,3.0775013 13.6499223,3.0775013 C12.9803503,3.0775013 12.9370084,2.42258195 12.9370084,2.42258195 L14.7293626,2.42258195 C14.7293626,2.42258195 14.8630791,0.95757774 13.5995753,0.95757774 Z M13.5230478,1.43919536 C13.542925,1.43806688 13.5642341,1.43919536 13.5854781,1.43919536 C14.2162772,1.43919536 14.2117956,2.03567575 14.2117956,2.03567575 L12.9370084,2.03567575 C12.9370084,2.03567575 12.9068524,1.47424777 13.5230478,1.43919536 Z" id="path3034"></path>
                                <path d="M18.930972,2.80116 L19.1713218,3.28215856 C19.1713218,3.28215856 18.7903812,3.52994555 18.3628739,3.52994555 C17.4777934,3.52994555 16.9863265,2.86340998 16.9863265,2.23270709 C16.9863265,1.24147403 17.7684419,0.950044032 18.2973238,0.950044032 C18.7773821,0.950044032 19.1931716,1.22698246 19.1931716,1.22698246 L18.9236891,1.70798103 C18.9236891,1.70798103 18.7603115,1.45290602 18.2827568,1.45290602 C17.8059993,1.45290602 17.5544253,1.86421311 17.5544253,2.25457051 C17.5544253,2.69201956 17.8472468,3.06352238 18.2900403,3.06352238 C18.6374036,3.06352238 18.930972,2.80116 18.930972,2.80116 Z" id="path3037"></path>
                            </g>
                            <path d="M29.9272791,14.2068767 L29.9272791,13.8756374 L29.840849,13.8756374 L29.7414262,14.1034351 L29.6420033,13.8756374 L29.5555732,13.8756374 L29.5555732,14.2068767 L29.6165827,14.2068767 L29.6165827,13.9570341 L29.7097916,14.1723962 L29.7730607,14.1723962 L29.8662697,13.9564688 L29.8662697,14.2068767 L29.9272791,14.2068767 Z M29.3798884,14.2068767 L29.3798884,13.9321629 L29.4906094,13.9321629 L29.4906094,13.8762026 L29.2087229,13.8762026 L29.2087229,13.9321629 L29.3194438,13.9321629 L29.3194438,14.2068767 L29.3798884,14.2068767 Z" id="path3057" fill="#F79F1A"></path>
                            <path d="M29.9446007,9.28258812 C29.9446007,14.4081095 25.7999824,18.5631663 20.6873357,18.5631663 C15.5746891,18.5631663 11.4300695,14.4081095 11.4300695,9.28258812 C11.4300695,4.15706596 15.5746891,0.00200952104 20.6873357,0.00200952104 C25.7999824,0.00200952104 29.9446007,4.15706596 29.9446007,9.28258812 Z" id="path2997" fill="#F79F1A"></path>
                            <path d="M18.5243592,9.28258812 C18.5243592,14.4081095 14.3797409,18.5631663 9.26709426,18.5631663 C4.15444759,18.5631663 0.0098280765,14.4081095 0.0098280765,9.28258812 C0.0098280765,4.15706596 4.15444759,0.00200952104 9.26709426,0.00200952104 C14.3797409,0.00200952104 18.5243592,4.15706596 18.5243592,9.28258812 Z" id="path2995" fill="#EA001B"></path>
                            <path d="M14.9772337,1.97684887 C12.8172796,3.67582094 11.4307891,6.3159207 11.4307891,9.28171854 C11.4307891,12.2475164 12.8172796,14.8896312 14.9772337,16.5886034 C17.1371879,14.8896312 18.5236784,12.2475164 18.5236784,9.28171854 C18.5236784,6.3159207 17.1371879,3.67582094 14.9772337,1.97684887 Z" id="path2999" fill="#FF5F01"></path>
                        </g>
                    </g>
                </g>
            </g>
        </g>
    </g>
</svg>