<?xml version="1.0" encoding="UTF-8"?>
<svg width="49px" height="31px" viewBox="0 0 49 31" version="1.1" xmlns="http://www.w3.org/2000/svg" xmlns:xlink="http://www.w3.org/1999/xlink">
    <!-- Generator: Sketch 52.6 (67491) - http://www.bohemiancoding.com/sketch -->
    <title>visa</title>
    <desc>Created with Sketch.</desc>
    <g id="Symbols" stroke="none" stroke-width="1" fill="none" fill-rule="evenodd">
        <g id="D___FOOTER" transform="translate(-725.000000, -463.000000)" fill-rule="nonzero">
            <g id="___FOOTER">
                <g id="payement-methods" transform="translate(544.000000, 455.000000)">
                    <g id="visa" transform="translate(181.200000, 8.400000)">
                        <rect id="Rectangle-1" fill="#0E4595" x="0" y="0" width="48" height="30" rx="2.64"></rect>
                        <g id="Group-24" transform="translate(2.400000, 8.400000)">
                            <polygon id="Shape" fill="#FFFFFF" points="15.07044 12.9206062 17.2282295 0.25872 20.6794896 0.25872 18.5202125 12.9206062"></polygon>
                            <path d="M30.9888348,0.53179896 C30.3050378,0.27527808 29.2336783,1.23250743e-13 27.8956432,1.23250743e-13 C24.4854548,1.23250743e-13 22.0832396,1.71731868 22.0628008,4.17858672 C22.0435908,5.99797044 23.7777263,7.012929 25.0868495,7.61859252 C26.4301884,8.23919712 26.8818488,8.63503872 26.8754455,9.18921696 C26.8669078,10.0379479 25.802663,10.4257045 24.8106659,10.4257045 C23.4292951,10.4257045 22.6954358,10.233799 21.5620482,9.76105284 L21.1173085,9.55976868 L20.63292,12.394305 C21.4390268,12.7477165 22.9296421,13.0539763 24.4773698,13.0698229 C28.1052064,13.0698229 30.4603345,11.372167 30.487112,8.74389516 C30.5001127,7.30353624 29.5806218,6.2073396 27.5895127,5.30369532 C26.383166,4.71795324 25.6443911,4.327092 25.6522174,3.7339764 C25.6522174,3.20767524 26.2775436,2.64489456 27.6286441,2.64489456 C28.7572454,2.62736628 29.574736,2.87347368 30.2117046,3.12999456 L30.5210044,3.27610668 L30.9888348,0.53179896" id="path13" fill="#FFFFFF"></path>
                            <path d="M39.8698516,0.25872 L37.2030305,0.25872 C36.3768728,0.25872 35.7586614,0.48419448 35.3958066,1.30873512 L30.27024,12.9125212 L33.8943251,12.9125212 C33.8943251,12.9125212 34.4869232,11.3523102 34.6209402,11.0097649 C35.0169758,11.0097649 38.5375729,11.015198 39.0409127,11.015198 C39.144142,11.4584501 39.4608152,12.9125212 39.4608152,12.9125212 L42.6632514,12.9125212 L39.8698516,0.25872 Z M35.63868,8.43472476 C35.9241128,7.70519904 37.0137121,4.89524112 37.0137121,4.89524112 C36.9933379,4.9289394 37.2970105,4.162158 37.4713231,3.68676 L37.7046239,4.77842904 C37.7046239,4.77842904 38.3654594,7.80086076 38.5035512,8.43466008 L35.63868,8.43466008 L35.63868,8.43472476 Z" id="Path" fill="#FFFFFF"></path>
                            <path d="M12.1407594,0.25872 L8.7618762,8.8931766 L8.40186732,7.13847288 C7.77285432,5.11567056 5.81305032,2.9241828 3.62208,1.82701596 L6.71164956,12.900426 L10.363159,12.8962218 L15.7965377,0.25872 L12.1407594,0.25872" id="path16" fill="#FFFFFF"></path>
                            <path d="M5.60917896,0.25872 L0.04404708,0.25872 L9.29603061e-14,0.52216164 C4.32961452,1.57023636 7.19448576,4.10304048 8.38369224,7.14629916 L7.17359412,1.32768636 C6.96467772,0.52591308 6.35875548,0.28666176 5.60917896,0.25872" id="path18" fill="#F2AE14"></path>
                        </g>
                    </g>
                </g>
            </g>
        </g>
    </g>
</svg>